<svg width="73" height="73" viewBox="0 0 73 73" fill="none" xmlns="http://www.w3.org/2000/svg">
<path d="M48.6667 54.75C50.2801 54.75 51.8275 55.3909 52.9683 56.5318C54.1092 57.6726 54.7501 59.2199 54.7501 60.8333C54.7501 62.4467 54.1092 63.9941 52.9683 65.1349C51.8275 66.2758 50.2801 66.9167 48.6667 66.9167C47.0533 66.9167 45.506 66.2758 44.3652 65.1349C43.2243 63.9941 42.5834 62.4467 42.5834 60.8333C42.5834 59.2199 43.2243 57.6726 44.3652 56.5318C45.506 55.3909 47.0533 54.75 48.6667 54.75ZM48.6667 57.7917C47.86 57.7917 47.0864 58.1121 46.516 58.6826C45.9455 59.253 45.6251 60.0266 45.6251 60.8333C45.6251 61.64 45.9455 62.4137 46.516 62.9841C47.0864 63.5545 47.86 63.875 48.6667 63.875C49.4734 63.875 50.2471 63.5545 50.8175 62.9841C51.388 62.4137 51.7084 61.64 51.7084 60.8333C51.7084 60.0266 51.388 59.253 50.8175 58.6826C50.2471 58.1121 49.4734 57.7917 48.6667 57.7917ZM21.2917 54.75C22.9051 54.75 24.4525 55.3909 25.5933 56.5318C26.7342 57.6726 27.3751 59.2199 27.3751 60.8333C27.3751 62.4467 26.7342 63.9941 25.5933 65.1349C24.4525 66.2758 22.9051 66.9167 21.2917 66.9167C19.6783 66.9167 18.131 66.2758 16.9902 65.1349C15.8493 63.9941 15.2084 62.4467 15.2084 60.8333C15.2084 59.2199 15.8493 57.6726 16.9902 56.5318C18.131 55.3909 19.6783 54.75 21.2917 54.75V54.75ZM21.2917 57.7917C20.485 57.7917 19.7114 58.1121 19.141 58.6826C18.5705 59.253 18.2501 60.0266 18.2501 60.8333C18.2501 61.64 18.5705 62.4137 19.141 62.9841C19.7114 63.5545 20.485 63.875 21.2917 63.875C22.0984 63.875 22.8721 63.5545 23.4425 62.9841C24.013 62.4137 24.3334 61.64 24.3334 60.8333C24.3334 60.0266 24.013 59.253 23.4425 58.6826C22.8721 58.1121 22.0984 57.7917 21.2917 57.7917ZM54.7501 18.25H12.9971L20.7442 36.5H45.6251C46.0981 36.5007 46.5646 36.3905 46.9872 36.1781C47.4098 35.9657 47.7767 35.6572 48.0584 35.2773L57.1834 23.1106H57.1865C57.5238 22.6585 57.7287 22.1214 57.7784 21.5595C57.8281 20.9976 57.7205 20.433 57.4678 19.9287C57.215 19.4244 56.8269 19.0003 56.347 18.7039C55.8671 18.4074 55.3142 18.2503 54.7501 18.25V18.25ZM45.6251 39.5417H20.8842L18.5542 44.2867L18.2501 45.625C18.2501 46.4317 18.5705 47.2054 19.141 47.7758C19.7114 48.3462 20.485 48.6667 21.2917 48.6667H54.7501V51.7083H21.2917C20.2325 51.7089 19.1915 51.4328 18.2718 50.9075C17.352 50.3822 16.5853 49.6258 16.0476 48.7132C15.5099 47.8007 15.2198 46.7635 15.206 45.7044C15.1922 44.6453 15.4551 43.6009 15.9688 42.6746L18.1588 38.1912L7.1115 12.1667H3.04175V9.125H9.12508L11.7075 15.2083H54.7501C55.8994 15.2084 57.0253 15.5342 57.9971 16.1478C58.969 16.7614 59.7472 17.6377 60.2415 18.6754C60.7358 19.713 60.926 20.8695 60.7902 22.0108C60.6543 23.1521 60.1979 24.2316 59.4738 25.1242L50.6104 36.9441C50.05 37.7465 49.3041 38.4017 48.4361 38.8539C47.5682 39.3062 46.6038 39.5421 45.6251 39.5417V39.5417Z" fill="#C61A27"/>
</svg>
