<svg width="71" height="71" viewBox="0 0 71 71" fill="#C61A27" xmlns="http://www.w3.org/2000/svg">
<path d="M34.0209 8.875C41.4746 8.875 48.623 11.836 53.8936 17.1065C59.1641 22.3771 62.1251 29.5255 62.1251 36.9792C62.1251 44.4329 59.1641 51.5813 53.8936 56.8518C48.623 62.1224 41.4746 65.0833 34.0209 65.0833C26.5672 65.0833 19.4188 62.1224 14.1483 56.8518C8.87771 51.5813 5.91675 44.4329 5.91675 36.9792C5.91675 29.5255 8.87771 22.3771 14.1483 17.1065C19.4188 11.836 26.5672 8.875 34.0209 8.875V8.875ZM34.0209 11.8333C27.3518 11.8333 20.9559 14.4826 16.2401 19.1984C11.5244 23.9141 8.87508 30.3101 8.87508 36.9792C8.87508 43.6483 11.5244 50.0442 16.2401 54.76C20.9559 59.4757 27.3518 62.125 34.0209 62.125C40.69 62.125 47.0859 59.4757 51.8017 54.76C56.5175 50.0442 59.1668 43.6483 59.1668 36.9792C59.1668 30.3101 56.5175 23.9141 51.8017 19.1984C47.0859 14.4826 40.69 11.8333 34.0209 11.8333ZM32.5417 20.7083H35.5001V36.7514L49.3924 44.7714L47.9132 47.3333L32.5417 38.4583V20.7083Z" fill="#C61A27"/>
</svg>
