<svg width="72" height="72" viewBox="0 0 72 72" fill="#C61A27" xmlns="http://www.w3.org/2000/svg">
<path d="M7 30.0003H16C16.7957 30.0003 17.5587 30.3164 18.1213 30.879C18.6839 31.4416 19 32.2047 19 33.0003V60.0003C19 60.796 18.6839 61.559 18.1213 62.1216C17.5587 62.6843 16.7957 63.0003 16 63.0003H7C6.20435 63.0003 5.44129 62.6843 4.87868 62.1216C4.31607 61.559 4 60.796 4 60.0003V33.0003C4 32.2047 4.31607 31.4416 4.87868 30.879C5.44129 30.3164 6.20435 30.0003 7 30.0003V30.0003ZM7 33.0003V60.0003H16V33.0003H7ZM54.148 57.0753L63.151 42.0753C63.691 41.1753 64 40.1253 64 39.0003V36.0003C64 34.409 63.3679 32.8829 62.2426 31.7577C61.1174 30.6325 59.5913 30.0003 58 30.0003H41.17L45.541 13.6803L45.556 13.6263C45.6927 13.1178 45.6931 12.5823 45.5572 12.0736C45.4213 11.565 45.154 11.101 44.782 10.7283L26.755 28.7553C26.1972 29.3124 25.755 29.9742 25.4538 30.7027C25.1526 31.4312 24.9984 32.212 25 33.0003V54.0003C25 55.5916 25.6321 57.1177 26.7574 58.243C27.8826 59.3682 29.4087 60.0003 31 60.0003H49C51.19 60.0003 53.104 58.8303 54.148 57.0753ZM67 39.0003C67 40.7823 66.484 42.4413 65.59 43.8363L56.872 58.3653C56.0929 59.7701 54.952 60.9408 53.5678 61.7558C52.1835 62.5709 50.6064 63.0006 49 63.0003H31C28.6131 63.0003 26.3239 62.0521 24.636 60.3643C22.9482 58.6765 22 56.3873 22 54.0003V33.0003C22 30.5163 23.005 28.2693 24.631 26.6403L44.782 6.48633L46.903 8.60733C47.662 9.36632 48.2035 10.315 48.471 11.3545C48.7385 12.394 48.7223 13.4862 48.424 14.5173L45.079 27.0003H58C60.387 27.0003 62.6761 27.9485 64.364 29.6364C66.0518 31.3242 67 33.6134 67 36.0003V39.0003Z" fill="#C61A27"/>
</svg>
