<svg width="71" height="71" viewBox="0 0 71 71" fill="#C61A27" xmlns="http://www.w3.org/2000/svg">
<path d="M13.875 8.875C11.5212 8.875 9.26381 9.81004 7.59943 11.4744C5.93504 13.1388 5 15.3962 5 17.75V56.2083C5 58.5621 5.93504 60.8195 7.59943 62.4839C9.26381 64.1483 11.5212 65.0833 13.875 65.0833H52.3333C54.6871 65.0833 56.9445 64.1483 58.6089 62.4839C60.2733 60.8195 61.2083 58.5621 61.2083 56.2083V50.9721C62.1368 50.1416 62.88 49.1251 63.3897 47.9884C63.8994 46.8518 64.1641 45.6207 64.1667 44.375V29.5833C64.1641 28.3377 63.8994 27.1065 63.3897 25.9699C62.88 24.8333 62.1368 23.8167 61.2083 22.9863V17.75C61.2083 15.3962 60.2733 13.1388 58.6089 11.4744C56.9445 9.81004 54.6871 8.875 52.3333 8.875H13.875ZM13.875 11.8333H52.3333C53.9025 11.8333 55.4075 12.4567 56.5171 13.5663C57.6266 14.6759 58.25 16.1808 58.25 17.75V21.2231C57.3003 20.8847 56.2999 20.7106 55.2917 20.7083H37.5417C35.1879 20.7083 32.9305 21.6434 31.2661 23.3078C29.6017 24.9721 28.6667 27.2295 28.6667 29.5833V44.375C28.6667 46.7288 29.6017 48.9862 31.2661 50.6506C32.9305 52.315 35.1879 53.25 37.5417 53.25H55.2917C56.2999 53.2477 57.3003 53.0736 58.25 52.7353V56.2083C58.25 57.7775 57.6266 59.2825 56.5171 60.3921C55.4075 61.5016 53.9025 62.125 52.3333 62.125H13.875C12.3058 62.125 10.8009 61.5016 9.69128 60.3921C8.58169 59.2825 7.95833 57.7775 7.95833 56.2083V17.75C7.95833 16.1808 8.58169 14.6759 9.69128 13.5663C10.8009 12.4567 12.3058 11.8333 13.875 11.8333V11.8333ZM37.5417 23.6667H55.2917C56.8609 23.6667 58.3658 24.29 59.4754 25.3996C60.585 26.5092 61.2083 28.0141 61.2083 29.5833V44.375C61.2083 45.9442 60.585 47.4491 59.4754 48.5587C58.3658 49.6683 56.8609 50.2917 55.2917 50.2917H37.5417C35.9725 50.2917 34.4675 49.6683 33.358 48.5587C32.2484 47.4491 31.625 45.9442 31.625 44.375V29.5833C31.625 28.0141 32.2484 26.5092 33.358 25.3996C34.4675 24.29 35.9725 23.6667 37.5417 23.6667V23.6667ZM44.9375 29.5833C42.976 29.5833 41.0948 30.3625 39.7079 31.7495C38.3209 33.1365 37.5417 35.0177 37.5417 36.9792C37.5417 38.9407 38.3209 40.8218 39.7079 42.2088C41.0948 43.5958 42.976 44.375 44.9375 44.375C46.899 44.375 48.7802 43.5958 50.1671 42.2088C51.5541 40.8218 52.3333 38.9407 52.3333 36.9792C52.3333 35.0177 51.5541 33.1365 50.1671 31.7495C48.7802 30.3625 46.899 29.5833 44.9375 29.5833V29.5833ZM44.9375 32.5417C45.5202 32.5417 46.0973 32.6564 46.6357 32.8795C47.174 33.1025 47.6632 33.4293 48.0753 33.8414C48.4873 34.2534 48.8142 34.7426 49.0372 35.281C49.2602 35.8194 49.375 36.3964 49.375 36.9792C49.375 37.5619 49.2602 38.1389 49.0372 38.6773C48.8142 39.2157 48.4873 39.7049 48.0753 40.117C47.6632 40.529 47.174 40.8559 46.6357 41.0789C46.0973 41.3019 45.5202 41.4167 44.9375 41.4167C43.7606 41.4167 42.6319 40.9491 41.7997 40.117C40.9675 39.2848 40.5 38.1561 40.5 36.9792C40.5 35.8023 40.9675 34.6736 41.7997 33.8414C42.6319 33.0092 43.7606 32.5417 44.9375 32.5417V32.5417Z" fill="#C61A27"/>
</svg>
